<?xml version="1.0" encoding="utf-8"?>
<!-- Generator: Adobe Illustrator 24.1.1, SVG Export Plug-In . SVG Version: 6.00 Build 0)  -->
<svg version="1.1" id="Layer_1" xmlns="http://www.w3.org/2000/svg" xmlns:xlink="http://www.w3.org/1999/xlink" x="0px" y="0px"
	 viewBox="0 0 1000 1000" style="enable-background:new 0 0 1000 1000;" xml:space="preserve">
<style type="text/css">
	.st0{fill:#042056;}
	.st1{fill:#052157;}
	.st2{fill:#F7AF3E;}
	.st3{fill:#08F6F9;}
</style>
<g>
	<path class="st0" d="M452.1,354.86c0,53.2-0.01,106.41-0.01,159.61c0,3.7,0,7.41-0.01,11.11c0,3.1,0,6.2,0,9.3
		c-0.1,56.26-0.2,112.52-0.3,168.77c-0.01,3.4,0,6.79,0,10.21c-3.07,1.31-4.56-1.05-6.39-2.43c-82-61.93-163.9-123.99-246.12-185.62
		c-7.74-5.8-5.24-7.51,0.87-11.48c45.47-29.57,90.77-59.39,136.11-89.17c1.5-0.99,2.8-2.28,4.19-3.43c4.35-1.41,7.89-4.1,11.23-7.09
		c2.43-1.55,4.85-3.1,7.28-4.66c4.51-2.99,9.03-5.98,13.54-8.97c1.08-0.68,2.15-1.36,3.23-2.05c0.6-0.47,1.21-0.95,1.81-1.42
		c0,0,0,0,0,0c6.38-4.12,12.76-8.24,19.14-12.36c0,0,0.02,0.03,0.01,0.03c12.57-8.08,25.07-16.3,37.76-24.19
		c5.58-3.47,10.25-8.63,17.15-9.81C451.77,352.44,451.94,353.65,452.1,354.86z M410.43,425.03
		c-49.89,32.72-98.75,64.75-148.37,97.29c49.78,37.58,98.44,74.33,148.37,112.02C410.43,563.79,410.43,495.16,410.43,425.03z"/>
	<path class="st1" d="M672.11,605.33c0.11-8.64,0.79-17.32,0.17-25.91c-0.52-7.21,1.45-9.99,9-11.03
		c21.06-2.9,37.19-18.58,41.83-39.19c4.64-20.62-3.55-41.47-20.7-53.7c-13.22-9.43-28.18-9.8-43.45-9.28
		c-5.33,0.18-3.61,4.12-3.62,6.75c-0.12,28.42-0.15,56.85-0.07,85.27c0.08,28.09,0.33,56.19,0.51,84.28
		c-2.34,4.3,2.65,10.5-3.58,13.79c-3.11,0-6.21,0.01-9.32,0.01c-11.24-0.07-16.83-10.2-25.7-14.48c-4.87-3.67-9.74-7.33-14.61-11
		c-10.61-8.03-21.23-16.06-31.84-24.09c-33.1-25.13-66.18-50.29-99.36-75.32c-1.32-0.99-2.34-1.74-2.58-3.34
		c49-31.97,98.12-63.78,146.9-96.08c7.37-4.88,14.49-7.1,23.19-6.75c18.47,0.74,37.13-1.44,55.34,3.17
		c43.97,11.13,74.44,52.35,70.51,95.13c-4.41,48.02-38.86,82.31-86.36,85.97c-1.5,0.12-2.98,0.58-4.47,0.89
		C673.31,608.71,672.71,607.02,672.11,605.33z M614.67,481.16c-25.22,16.53-48.92,32.03-72.56,47.6c-5.34,3.52-0.33,4.77,1.7,6.32
		c17.68,13.48,35.36,26.97,53.18,40.25c5.55,4.13,10.37,9.46,17.68,12.08C614.67,552.18,614.67,517.64,614.67,481.16z"/>
	<path class="st0" d="M108.45,651.97c-6.3,0.57-12.63,0.91-18.9,1.77c-4.81,0.66-5.64-1.9-5.57-5.67c0.1-8.34,0.54-16.69,0.19-25.01
		c-0.22-5.12,1.3-6.41,6.48-6.95c27.42-2.85,50.23-22.36,56.55-47.59c6.72-26.86-3.73-54.48-26.67-69.73
		c-9.11-6.06-19.12-10.22-30.23-10.38c-5-0.07-6.16-1.99-6.1-6.59c0.22-17,0.25-34-0.01-51c-0.07-4.7,1.67-5.53,5.89-5.52
		c59.35,0.12,118.69,0.12,178.04-0.02c4.48-0.01,6.29,1.24,5.59,5.68c-0.09,0.6-0.11,1.25,0,1.85c3.35,18.51-2.64,31.71-20.73,39.27
		c-6.9,2.88-12.8,8.13-19.24,12.36c-0.49-0.91-0.95-1.37-0.95-1.83c-0.26-15.82-0.25-15.83-15.99-15.83c-24.09,0-48.18,0-72.66,0
		c0.43,4.16,3.74,5.17,5.84,6.94c18.62,15.72,30.66,35.35,34.9,59.39c1.16,6.56,4.07,10.89,9.46,14.74
		c12.49,8.94,24.49,18.59,37.93,28.9c0.28-5.9,0.49-10.56,0.78-16.62c13.26,9.96,25.7,19.35,38.2,28.66
		c2.32,1.72,2.5,3.98,2.49,6.53c-0.05,18.24-0.24,36.48,0.08,54.71c0.09,5.28-2.02,6.04-6.5,5.91c-9.26-0.28-18.57-0.53-27.81,0.07
		c-6.22,0.41-7.82-2.19-6.75-7.42c3.11-15.1-3.79-24.49-16.18-32.29c-11.18-7.04-21.22-15.89-31.75-23.96
		c-2.46-1.89-4.32-4.29-6.6,0.77C164.45,623.87,140.37,642.61,108.45,651.97z"/>
	<path class="st0" d="M817.33,657.02c10.49,3.08,19.57,8.78,28.25,15.22c0.18,5.89-1.74,11.93,1.26,17.62
		c0.48,0.35,0.97,0.7,1.45,1.04c10.19,6.64,23.76,10.89,19.49,27.7c0,9.69,0,19.38,0,30.39c-14.94-8.34-28.48-15.9-42.02-23.46
		c-2-1.14-4.01-2.29-6.01-3.43c-0.79-0.48-1.57-0.95-2.36-1.43c-7.78-4.51-15.55-9.02-23.33-13.53c-0.89-0.48-1.79-0.96-2.68-1.44
		c-5.29-2.76-8.69-6.64-7.75-13.09c1.3-22.8,7.02-30.53,26.35-35.64C812.43,656.99,814.88,657.01,817.33,657.02z"/>
	<path class="st1" d="M470.18,539.61c13.35,10.1,25.23,19.29,37.37,28.12c3.16,2.3,2.97,5.08,2.97,8.12
		c0.02,24.4-0.08,48.79,0.13,73.19c0.04,4.93-0.97,7.24-6.54,6.98c-9.24-0.43-18.53-0.35-27.79-0.03c-4.74,0.17-6.31-1.07-6.27-6.13
		C470.29,613.73,470.18,577.61,470.18,539.61z"/>
	<path class="st0" d="M887.88,425.28c15.38,0.13,30.75,0.26,46.13,0.38c0.1,11.43-0.1,22.88,0.42,34.3c0.26,5.68-2.1,6.4-6.97,6.37
		c-31.53-0.2-63.06-0.17-94.6-0.04c-3.33,0.01-8.12-2.42-8.28,4.89c-0.16,7.47,4.49,5.71,8.5,5.85c13.57,0.46,27.27-1.42,40.7,1.26
		c36.46,7.26,62.1,37.13,63.85,73.87c1.69,35.43-21.98,67.49-57.64,78.07c-1.99,0.59-3.98,1.17-7.36,2.16
		c17.93,10.36,34.78,20.45,51.99,29.88c6.8,3.72,10.87,7.48,9.9,16.19c-1.05,9.47-0.49,19.15-0.15,28.72
		c0.23,6.44-1.53,6.61-6.63,3.65c-24.76-14.35-49.69-28.41-74.56-42.58c-20.97-12.28-41.84-24.74-62.99-36.71
		c-4.67-2.64-6.74-5.35-6.37-10.77c0.48-7.07,0.49-14.23,0-21.31c-0.39-5.64,1.19-7.33,7.06-7.23c23.17,0.38,46.35,0.24,69.53,0.14
		c17.02-0.07,31.1-11.38,35.6-28.28c4.19-15.76-2.38-31.68-16.79-40.49c-2.61,1.56-1.68,4.35-1.93,6.54
		c-2.88,25.76-21.2,43.74-46.94,45.01c-13.56,0.67-27.19-0.02-40.78,0.26c-4.57,0.09-5.71-1.54-5.7-5.87
		c0.12-46.04,0.19-92.09-0.06-138.13c-0.03-6.51,3.63-5.73,7.69-5.73c28.74,0.03,57.48,0.02,86.22-0.02
		C881.11,425.66,884.49,425.41,887.88,425.28z M824.37,526.03c1.98,2.8-2.96,8.89,4.3,8.69c5.08-0.14,8.7-3.37,8.72-8.66
		c0.03-5.28-3.38-8.61-8.61-8.76C821.44,517.08,826.33,523.18,824.37,526.03z"/>
	<path class="st1" d="M599.25,428.58c5.95-7.85,11.75-15.83,17.91-23.51c2.58-3.22,1.34-5.39-0.52-8.15
		c-12.54-18.55-39.71-28.61-62.35-22.97c-22.82,5.69-42.03,27.71-43.15,51.16c-0.96,20.02-0.7,40.12-0.45,60.18
		c0.07,5.68-1.8,8.95-6.5,11.84c-10.96,6.75-21.61,14.01-32.59,21.19c-2.28-2.52-1.37-5.06-1.38-7.29
		c-0.07-26.88-0.24-53.76,0.03-80.64c0.46-45.2,32.02-85.45,74.68-95.68c43.98-10.54,90.12,10.23,111.74,49.93
		c2.79,5.12,2.38,7.54-2.57,10.67c-15.88,10.03-31.41,20.62-47.17,30.84c-2.26,1.46-4.13,5.27-7.85,2.42L599.25,428.58z"/>
	<path class="st2" d="M410.43,425.03c0,70.13,0,138.76,0,209.31c-49.93-37.7-98.59-74.44-148.37-112.02
		C311.68,489.78,360.54,457.75,410.43,425.03z"/>
	<path class="st3" d="M614.67,481.16c0,36.48,0,71.02,0,106.25c-7.3-2.61-12.13-7.94-17.68-12.08
		c-17.83-13.28-35.5-26.77-53.18-40.25c-2.03-1.55-7.04-2.8-1.7-6.32C565.75,513.19,589.44,497.69,614.67,481.16z"/>
</g>
</svg>
