<svg id="Layer_1" data-name="Layer 1" xmlns="http://www.w3.org/2000/svg" xmlns:xlink="http://www.w3.org/1999/xlink" viewBox="0 0 2404.22 2556.12"><defs><style>.cls-1{fill:none;}.cls-2{clip-path:url(#clip-path);}.cls-3{fill:#000f30;}.cls-4{fill:#001041;}.cls-5{fill:#021649;}.cls-6{fill:#061b50;}.cls-7{fill:#0a2059;}.cls-8{fill:#0c2661;}.cls-9{fill:#fff;}.cls-10{fill:#2b4582;}.cls-11{fill:#e2f2ff;}.cls-12{fill:#d0e9fd;}.cls-13{fill:#f6f2ff;}.cls-14{fill:#ede9fa;}.cls-15{fill:#7a97b9;}.cls-16{fill:#3f69bf;}.cls-17{fill:#ecf4ff;}.cls-18{fill:#999;}.cls-19{fill:#e6e6e6;}.cls-20{fill:#666;opacity:0.43;isolation:isolate;}</style><clipPath id="clip-path" transform="translate(-509.65 1347.39)"><rect class="cls-1" x="1406" y="-459" width="1000.26" height="1382.36"/></clipPath></defs><g class="cls-2"><circle class="cls-3" cx="1440.73" cy="1528.43" r="874.77"/><circle class="cls-4" cx="1440.73" cy="1818.55" r="482.03"/><circle class="cls-5" cx="1440.73" cy="1818.55" r="416.67"/><circle class="cls-6" cx="1440.73" cy="1818.55" r="355.46"/><circle class="cls-7" cx="1440.73" cy="1818.55" r="275.35"/><circle class="cls-8" cx="1440.73" cy="1818.55" r="192.31"/><circle class="cls-9" cx="1597.7" cy="2097.7" r="9.15"/><circle class="cls-9" cx="1094.28" cy="1610.38" r="9.15"/><circle class="cls-9" cx="1531.11" cy="1382.82" r="4.76"/><circle class="cls-9" cx="1588.19" cy="1619.89" r="4.76"/><circle class="cls-9" cx="1170.38" cy="1438.43" r="4.76"/><circle class="cls-9" cx="1060.62" cy="1929.41" r="15.73"/><circle class="cls-9" cx="1185.01" cy="1875.26" r="4.76"/><circle class="cls-9" cx="1290.38" cy="2173.8" r="4.76"/><circle class="cls-9" cx="1719.16" cy="1709.89" r="3.29"/><polygon class="cls-10" points="1637.58 1861.36 1401.6 2097.34 1637.58 2097.34 1637.58 1861.36"/><polygon class="cls-4" points="1637.58 1861.36 1873.56 2097.34 1637.58 2097.34 1637.58 1861.36"/><polygon class="cls-11" points="1637.58 1860.99 1567.53 1931.41 1595.87 1922.46 1607.58 1948.8 1637.58 1934.49 1637.58 1860.99"/><polygon class="cls-12" points="1637.58 1860.99 1690.27 1914.05 1690.26 1936.36 1660.99 1919.53 1658.07 1939.29 1637.58 1934.16 1637.58 1860.99"/><polygon class="cls-10" points="1248.31 1905.2 1051.78 2101.73 1248.31 2101.73 1248.31 1905.2"/><polygon class="cls-4" points="1248.31 1905.2 1444.83 2101.73 1248.31 2101.73 1248.31 1905.2"/><polygon class="cls-11" points="1248.31 1904.9 1189.97 1963.54 1213.57 1956.08 1223.32 1978.02 1248.31 1966.11 1248.31 1904.9"/><polygon class="cls-12" points="1248.31 1904.9 1292.19 1949.09 1292.18 1967.66 1267.81 1953.65 1265.37 1970.1 1248.31 1965.83 1248.31 1904.9"/><circle class="cls-11" cx="995.63" cy="2181.25" r="44.32"/><circle class="cls-11" cx="1124.28" cy="2181.25" r="44.32"/><circle class="cls-11" cx="1066.98" cy="2181.25" r="44.32"/><circle class="cls-11" cx="1029.14" cy="2159.63" r="44.32"/><circle class="cls-11" cx="1189.14" cy="2189.9" r="44.32"/><circle class="cls-11" cx="1236.71" cy="2147.74" r="44.32"/><circle class="cls-11" cx="1294" cy="2159.63" r="44.32"/><circle class="cls-11" cx="1344.81" cy="2119.63" r="44.32"/><circle class="cls-11" cx="1402.11" cy="2099.09" r="44.32"/><circle class="cls-11" cx="1464.81" cy="2099.09" r="44.32"/><circle class="cls-11" cx="2022.03" cy="779.81" r="44.32" transform="translate(18.13 3696.89) rotate(-67.5)"/><circle class="cls-11" cx="2090.14" cy="793.86" r="44.32" transform="translate(47.2 3768.49) rotate(-67.5)"/><circle class="cls-11" cx="1644.27" cy="2147.74" r="44.32"/><circle class="cls-11" cx="1698.32" cy="2174.76" r="44.32"/><circle class="cls-11" cx="1778.32" cy="2163.95" r="44.32"/><circle class="cls-11" cx="1843.19" cy="2154.22" r="44.32"/><circle class="cls-11" cx="1875.62" cy="2174.76" r="44.32"/><circle class="cls-11" cx="1423.19" cy="2034.77" r="38.38"/><circle class="cls-11" cx="1389.14" cy="2032.06" r="31.35"/><ellipse class="cls-11" cx="1485.35" cy="2015.31" rx="38.92" ry="43.78"/><ellipse class="cls-11" cx="1461.57" cy="2016.93" rx="32.43" ry="56.22"/><ellipse class="cls-11" cx="1404.27" cy="1993.69" rx="40" ry="27.57"/><ellipse class="cls-11" cx="1430.22" cy="1956.39" rx="31.35" ry="36.76"/><ellipse class="cls-11" cx="1388.06" cy="1949.36" rx="27.03" ry="29.73"/><ellipse class="cls-11" cx="1474" cy="1953.15" rx="29.73" ry="25.95"/><ellipse class="cls-11" cx="1521.03" cy="2086.66" rx="35.68" ry="27.57"/><ellipse class="cls-11" cx="1522.65" cy="2052.06" rx="37.3" ry="30.81"/><ellipse class="cls-11" cx="1371.84" cy="2068.82" rx="36.76" ry="17.3"/><ellipse class="cls-11" cx="1359.41" cy="2030.44" rx="29.73" ry="34.05"/><ellipse class="cls-11" cx="1370.22" cy="1973.69" rx="25.41" ry="28.11"/><ellipse class="cls-11" cx="1443.19" cy="1916.39" rx="34.59" ry="36.76"/><circle class="cls-11" cx="1410.76" cy="1912.06" r="25.95"/><ellipse class="cls-11" cx="1428.6" cy="1884.5" rx="17.84" ry="20"/><circle class="cls-11" cx="1457.25" cy="1880.71" r="20.54"/><ellipse class="cls-11" cx="1406.44" cy="1887.2" rx="17.3" ry="14.05"/><rect class="cls-11" x="1403.19" y="1758.55" width="54.05" height="408.64"/><rect class="cls-13" x="1412.92" y="1758.55" width="17.3" height="382.74"/><rect class="cls-14" x="1430.22" y="1758.55" width="17.3" height="382.74"/><ellipse class="cls-9" cx="1028.6" cy="2221.25" rx="51.35" ry="49.73"/><circle class="cls-9" cx="1079.95" cy="2216.93" r="49.73"/><circle class="cls-9" cx="1155.63" cy="2230.98" r="49.73"/><circle class="cls-9" cx="1214.01" cy="2224.49" r="49.73"/><circle class="cls-9" cx="1259.41" cy="2216.93" r="57.3"/><circle class="cls-9" cx="1338.33" cy="2189.9" r="57.3"/><circle class="cls-9" cx="1395.62" cy="2167.2" r="57.3"/><circle class="cls-9" cx="1446.43" cy="2156.39" r="57.3"/><circle class="cls-9" cx="2003.65" cy="842.51" r="57.3" transform="translate(-51.14 3718.62) rotate(-67.5)"/><ellipse class="cls-9" cx="1556.16" cy="2198.55" rx="43.78" ry="57.3"/><ellipse class="cls-9" cx="1635.08" cy="2216.93" rx="54.59" ry="57.3"/><circle class="cls-9" cx="1721.03" cy="2238.55" r="57.3"/><circle class="cls-9" cx="1792.92" cy="2214.22" r="50.27"/><ellipse class="cls-9" cx="1859.94" cy="2198.01" rx="52.43" ry="50.27"/><rect class="cls-9" x="896.35" y="2205.03" width="1000" height="351.09"/><path class="cls-15" d="M2217.84,275.8a49.39,49.39,0,0,1,0-98.78" transform="translate(-509.65 1347.39)"/><path class="cls-16" d="M2217.84,177a49.39,49.39,0,0,1,0,98.78" transform="translate(-509.65 1347.39)"/><path class="cls-17" d="M2215.24,269.56a45.75,45.75,0,0,1,0-91.5" transform="translate(-509.65 1347.39)"/><path class="cls-17" d="M2215.24,178.05a45.75,45.75,0,0,1,0,91.5" transform="translate(-509.65 1347.39)"/><circle class="cls-18" cx="1679.59" cy="1572.75" r="7.28"/><circle class="cls-19" cx="1680.4" cy="1573.56" r="6.47"/><path class="cls-20" d="M2217.84,177a49.39,49.39,0,0,1,0,98.78" transform="translate(-509.65 1347.39)"/><circle class="cls-18" cx="1705.59" cy="1541.04" r="4.16"/><circle class="cls-19" cx="1706.05" cy="1541.5" r="3.7"/><circle class="cls-18" cx="1707.93" cy="1582.89" r="5.98"/><circle class="cls-19" cx="1708.59" cy="1583.56" r="5.31"/><circle class="cls-18" cx="1695.19" cy="1616.95" r="4.16"/><circle class="cls-19" cx="1695.65" cy="1617.41" r="3.7"/><circle class="cls-18" cx="1733.92" cy="1555.34" r="2.86"/><circle class="cls-19" cx="1734.24" cy="1555.66" r="2.54"/><circle class="cls-18" cx="1736" cy="1603.69" r="2.86"/><circle class="cls-19" cx="1736.32" cy="1604.01" r="2.54"/><path class="cls-9" d="M778.13-132.82a355.91,355.91,0,0,0,64.93,39.55,291.23,291.23,0,0,0,89.68,25.76A272,272,0,0,0,977.22-66c4.83-.24,9.49-.6,14-1,41.77-4.26,67.61-17,67.61-17q16.35-7.45,32.52-13.83,21.87-8.64,43.31-15.45a699.61,699.61,0,0,1,220.05-32.8c88.22.95,145.61,18.1,145.61,18.1q10.89,5,21.83,9.28C1689.05-53,1861.31-103,1861.31-103c90.61-27.49,168.06-46.81,234.19-60,306.77-61.25,369.81,9.31,369.81,9.31,60.4,25.13,114.67,44,162.84,58.21C2748.58-60,2830.8-54.2,2875.07-54.71c25.88-.3,38.8-2.77,38.8-2.77l-20.35-204.27L2785.38-1347.39,509.65-1120.69l87.84,881.8,116.44,68.38Z" transform="translate(-509.65 1347.39)"/></g></svg>