<?xml version="1.0" encoding="utf-8"?>
<!-- Generator: Adobe Illustrator 24.1.1, SVG Export Plug-In . SVG Version: 6.00 Build 0)  -->
<svg version="1.1" id="Layer_1" xmlns="http://www.w3.org/2000/svg" xmlns:xlink="http://www.w3.org/1999/xlink" x="0px" y="0px"
	 viewBox="0 0 1000 1000" style="enable-background:new 0 0 1000 1000;" xml:space="preserve">
<style type="text/css">
	.st0{clip-path:url(#SVGID_1_);}
	.st1{fill:#000F30;}
	.st2{fill:#001041;}
	.st3{fill:#021649;}
	.st4{fill:#061B50;}
	.st5{fill:#0A2059;}
	.st6{fill:#0C2661;}
	.st7{fill:#FFFFFF;}
	.st8{fill:#2B4582;}
	.st9{fill:#E2F2FF;}
	.st10{fill:#D0E9FD;}
	.st11{fill:#F6F2FF;}
	.st12{fill:#EDE9FA;}
	.st13{fill:#7A97B9;}
	.st14{fill:#3F69BF;}
	.st15{fill:#ECF4FF;}
	.st16{fill:#999999;}
	.st17{fill:#E6E6E6;}
	.st18{opacity:0.43;fill:#666666;}
</style>
<g>
	<defs>
		<rect id="SVGID_3_" y="-0.06" width="1000.26" height="923.42"/>
	</defs>
	<clipPath id="SVGID_1_">
		<use xlink:href="#SVGID_3_"  style="overflow:visible;"/>
	</clipPath>
	<g class="st0">
		<g>
			<g>
				<g>
					<g>
						<circle class="st1" cx="544.38" cy="181.04" r="874.77"/>
						<circle class="st2" cx="544.38" cy="471.16" r="482.03"/>
						<circle class="st3" cx="544.38" cy="471.16" r="416.67"/>
						<circle class="st4" cx="544.38" cy="471.16" r="355.46"/>
						<circle class="st5" cx="544.38" cy="471.16" r="275.35"/>
						<circle class="st6" cx="544.38" cy="471.16" r="192.31"/>
					</g>
					<circle class="st7" cx="701.35" cy="750.31" r="9.15"/>
					<circle class="st7" cx="197.93" cy="262.99" r="9.15"/>
					<circle class="st7" cx="634.76" cy="35.43" r="4.76"/>
					<circle class="st7" cx="691.84" cy="272.5" r="4.76"/>
					<circle class="st7" cx="274.03" cy="91.04" r="4.76"/>
					<circle class="st7" cx="164.27" cy="582.02" r="15.73"/>
					<circle class="st7" cx="288.66" cy="527.87" r="4.76"/>
					<circle class="st7" cx="394.03" cy="826.41" r="4.76"/>
					<circle class="st7" cx="822.81" cy="362.5" r="3.29"/>
				</g>
				<g>
					<polygon class="st8" points="741.23,513.97 505.25,749.95 741.23,749.95 					"/>
					<polygon class="st2" points="741.23,513.97 977.21,749.95 741.23,749.95 					"/>
					<polygon class="st9" points="741.23,513.6 671.18,584.02 699.52,575.07 711.23,601.41 741.23,587.1 					"/>
					<polygon class="st10" points="741.23,513.6 793.92,566.66 793.91,588.97 764.64,572.14 761.72,591.9 741.23,586.77 					"/>
				</g>
				<g>
					<polygon class="st8" points="351.96,557.81 155.43,754.34 351.96,754.34 					"/>
					<polygon class="st2" points="351.96,557.81 548.48,754.34 351.96,754.34 					"/>
					<polygon class="st9" points="351.96,557.51 293.62,616.15 317.22,608.69 326.97,630.63 351.96,618.72 					"/>
					<polygon class="st10" points="351.96,557.51 395.84,601.7 395.83,620.27 371.46,606.26 369.02,622.71 351.96,618.44 					"/>
				</g>
			</g>
			<g>
				<g>
					<circle class="st9" cx="99.28" cy="833.86" r="44.32"/>
					<circle class="st9" cx="227.93" cy="833.86" r="44.32"/>
					<circle class="st9" cx="170.63" cy="833.86" r="44.32"/>
					<circle class="st9" cx="132.79" cy="812.24" r="44.32"/>
					<circle class="st9" cx="292.79" cy="842.51" r="44.32"/>
					<circle class="st9" cx="340.36" cy="800.35" r="44.32"/>
					<circle class="st9" cx="397.65" cy="812.24" r="44.32"/>
					<circle class="st9" cx="448.46" cy="772.24" r="44.32"/>
					<circle class="st9" cx="505.76" cy="751.7" r="44.32"/>
					<circle class="st9" cx="568.46" cy="751.7" r="44.32"/>
					<circle class="st9" cx="616.03" cy="779.81" r="44.32"/>
					<circle class="st9" cx="684.14" cy="793.86" r="44.32"/>
					<circle class="st9" cx="747.92" cy="800.35" r="44.32"/>
					<circle class="st9" cx="801.97" cy="827.37" r="44.32"/>
					<circle class="st9" cx="881.97" cy="816.56" r="44.32"/>
					<circle class="st9" cx="946.84" cy="806.83" r="44.32"/>
					<circle class="st9" cx="979.27" cy="827.37" r="44.32"/>
					<circle class="st9" cx="526.84" cy="687.38" r="38.38"/>
					<circle class="st9" cx="492.79" cy="684.67" r="31.35"/>
					<ellipse class="st9" cx="589" cy="667.92" rx="38.92" ry="43.78"/>
					<ellipse class="st9" cx="565.22" cy="669.54" rx="32.43" ry="56.22"/>
					<ellipse class="st9" cx="507.92" cy="646.3" rx="40" ry="27.57"/>
					<ellipse class="st9" cx="533.87" cy="609" rx="31.35" ry="36.76"/>
					<ellipse class="st9" cx="491.71" cy="601.97" rx="27.03" ry="29.73"/>
					<ellipse class="st9" cx="577.65" cy="605.76" rx="29.73" ry="25.95"/>
					<ellipse class="st9" cx="624.68" cy="739.27" rx="35.68" ry="27.57"/>
					<ellipse class="st9" cx="626.3" cy="704.67" rx="37.3" ry="30.81"/>
					<ellipse class="st9" cx="475.49" cy="721.43" rx="36.76" ry="17.3"/>
					<ellipse class="st9" cx="463.06" cy="683.05" rx="29.73" ry="34.05"/>
					<ellipse class="st9" cx="473.87" cy="626.3" rx="25.41" ry="28.11"/>
					<ellipse class="st9" cx="546.84" cy="569" rx="34.59" ry="36.76"/>
					<circle class="st9" cx="514.41" cy="564.67" r="25.95"/>
					<ellipse class="st9" cx="532.25" cy="537.11" rx="17.84" ry="20"/>
					<circle class="st9" cx="560.9" cy="533.32" r="20.54"/>
					<ellipse class="st9" cx="510.09" cy="539.81" rx="17.3" ry="14.05"/>
				</g>
				<g>
					<rect x="506.84" y="411.16" class="st9" width="54.05" height="408.64"/>
					<rect x="516.57" y="411.16" class="st11" width="17.3" height="382.74"/>
					<rect x="533.87" y="411.16" class="st12" width="17.3" height="382.74"/>
				</g>
				<g>
					<g>
						<ellipse class="st7" cx="132.25" cy="873.86" rx="51.35" ry="49.73"/>
						<circle class="st7" cx="183.6" cy="869.54" r="49.73"/>
						<circle class="st7" cx="259.28" cy="883.59" r="49.73"/>
						<circle class="st7" cx="317.66" cy="877.1" r="49.73"/>
						<circle class="st7" cx="363.06" cy="869.54" r="57.3"/>
						<circle class="st7" cx="441.98" cy="842.51" r="57.3"/>
						<circle class="st7" cx="499.27" cy="819.81" r="57.3"/>
						<circle class="st7" cx="550.09" cy="809" r="57.3"/>
						<circle class="st7" cx="597.65" cy="842.51" r="57.3"/>
						<ellipse class="st7" cx="659.81" cy="851.16" rx="43.78" ry="57.3"/>
						<ellipse class="st7" cx="738.73" cy="869.54" rx="54.59" ry="57.3"/>
						<circle class="st7" cx="824.68" cy="891.16" r="57.3"/>
						<circle class="st7" cx="896.57" cy="866.83" r="50.27"/>
						<ellipse class="st7" cx="963.59" cy="850.62" rx="52.43" ry="50.27"/>
					</g>
					<rect x="84.14" y="857.64" class="st7" width="927.56" height="351.09"/>
				</g>
			</g>
			<g>
				<path class="st13" d="M811.84,275.8c-27.28,0-49.39-22.11-49.39-49.39s22.11-49.39,49.39-49.39"/>
				<path class="st14" d="M811.84,177.01c27.28,0,49.39,22.11,49.39,49.39s-22.11,49.39-49.39,49.39"/>
				<path class="st15" d="M809.24,269.56c-25.27,0-45.75-20.48-45.75-45.75s20.48-45.75,45.75-45.75"/>
				<path class="st15" d="M809.24,178.05c25.27,0,45.75,20.48,45.75,45.75s-20.48,45.75-45.75,45.75"/>
				<g>
					<circle class="st16" cx="783.24" cy="225.36" r="7.28"/>
					<circle class="st17" cx="784.05" cy="226.17" r="6.47"/>
				</g>
				<path class="st18" d="M811.84,177.01c27.28,0,49.39,22.11,49.39,49.39s-22.11,49.39-49.39,49.39"/>
				<g>
					<circle class="st16" cx="809.24" cy="193.65" r="4.16"/>
					<circle class="st17" cx="809.7" cy="194.11" r="3.7"/>
				</g>
				<g>
					<circle class="st16" cx="811.58" cy="235.5" r="5.98"/>
					<circle class="st17" cx="812.24" cy="236.17" r="5.31"/>
				</g>
				<g>
					<circle class="st16" cx="798.84" cy="269.56" r="4.16"/>
					<circle class="st17" cx="799.3" cy="270.02" r="3.7"/>
				</g>
				<g>
					<circle class="st16" cx="837.57" cy="207.95" r="2.86"/>
					<circle class="st17" cx="837.89" cy="208.27" r="2.54"/>
				</g>
				<g>
					<circle class="st16" cx="839.65" cy="256.3" r="2.86"/>
					<circle class="st17" cx="839.97" cy="256.62" r="2.54"/>
				</g>
			</g>
		</g>
		<path class="st7" d="M120.52,902.07c17.89-11.61,31.86-22.83,42.67-33.52c16.54-16.35,25.69-31.45,30.23-44.82
			c2.67-7.85,3.74-15.1,3.77-21.65c0.01-2.33-0.11-4.57-0.33-6.72c-2.09-20.04-13.4-31.92-13.4-31.92
			c-4.39-5.03-8.41-10.06-12.09-15.06c-4.98-6.78-9.35-13.52-13.15-20.21c-21.92-38.58-25.16-75.23-21.35-105.05
			c5.47-42.84,25.48-71.56,25.48-71.56c3.68-3.69,7.12-7.38,10.35-11.06c73.94-84.34,33.06-165.33,33.06-165.33
			c-22.7-42.54-37.95-79.11-47.7-110.51c-45.2-145.65,28.23-179.85,28.23-179.85c28.1-30.59,49.69-57.88,66.27-81.97
			c41.44-60.23,51.47-100.41,53.23-121.86c1.03-12.54-0.77-18.68-0.77-18.68l-204.27,20.35L-984.88-9.19l108.8,1092.17l881.8-87.84
			l74-59.99L120.52,902.07z"/>
	</g>
</g>
</svg>
