<svg id="Layer_1" data-name="Layer 1" xmlns="http://www.w3.org/2000/svg" viewBox="0 0 561.49 907"><defs><style>.cls-1{fill:#aa1a25;}.cls-2{fill:#e92023;}.cls-3{fill:#700;}.cls-4{fill:#b20000;}.cls-5{fill:#cc111a;}.cls-6{fill:#ff0;}.cls-7{fill:#ffce00;}.cls-8{fill:#ea8341;}.cls-9{fill:#e7693a;}.cls-10{fill:#f5a722;}.cls-11{fill:#fbed12;}.cls-12,.cls-16{fill:#fff;}.cls-12,.cls-13{opacity:0.1;}.cls-13{fill:#1a1a1a;}.cls-14{fill:#0a205a;stroke:#ed1c24;}.cls-14,.cls-15{stroke-miterlimit:10;stroke-width:6px;}.cls-15{fill:#001338;stroke:#89000a;}</style></defs><path class="cls-1" d="M498.75,242.46h96.43C595.18,136.73,499.45,51,499.45,51" transform="translate(-218.79 -51)"/><path class="cls-2" d="M499.45,51s-95.74,85.73-95.74,191.46h95" transform="translate(-218.79 -51)"/><path class="cls-3" d="M498.75,242.46h96.43l-4.2,9.78s-18.21,9.51-92.22,7.05" transform="translate(-218.79 -51)"/><path class="cls-4" d="M498.76,259.29c-24.29-.8-54.6-2.9-92.25-7.05l-2.8-9.78h95" transform="translate(-218.79 -51)"/><path class="cls-2" d="M405.84,252.24s-29.91,58.7-23.61,334l36.21,25.15,80.31,1.4V253.64Z" transform="translate(-218.79 -51)"/><path class="cls-1" d="M591.65,252.24s29.92,58.7,23.62,334l-36.22,25.15-80.3,1.4V253.64Z" transform="translate(-218.79 -51)"/><path class="cls-5" d="M403.15,450.69S190,449.3,222.09,693.87c0,0,4.2,14,12.58,0,0,0,86.65-159.32,169.1-107.61Z" transform="translate(-218.79 -51)"/><path class="cls-2" d="M595.93,450.69S809.13,449.3,777,693.87c0,0-4.19,14-12.57,0,0,0-86.65-159.32-169.11-107.61Z" transform="translate(-218.79 -51)"/><path class="cls-6" d="M419.09,611.41v25.16s0,8.38,12.58,8.38h67.08V612.81Z" transform="translate(-218.79 -51)"/><path class="cls-7" d="M498.75,645V612.81l79.66-1.4v25.16s0,8.38-12.58,8.38H498.75" transform="translate(-218.79 -51)"/><path class="cls-8" d="M498.75,654.73H423.28s-50.31,79.66-14,169.11c0,0,8.39-23.76,19.57-39.13,0,0-5.59,21-5.59,60.09,0,0,12.58-18.17,16.77-15.37,0,0,11.18,79.66,58.7,128.57Z" transform="translate(-218.79 -51)"/><path class="cls-9" d="M498.75,654.73h75.46s50.32,79.66,14,169.11c0,0-8.39-23.76-19.57-39.13,0,0,5.59,21,5.59,60.09,0,0-12.57-18.17-16.77-15.37,0,0-11.18,79.66-58.69,128.57Z" transform="translate(-218.79 -51)"/><path class="cls-10" d="M498.75,654.73h55.31s30.19,20.76,9.43,54.72c0,0-9.43-20.75-20.75-18.87,0,0,5.66,84.9-43.4,115.09" transform="translate(-218.79 -51)"/><path class="cls-11" d="M499.34,805.67S448.4,754.73,463.5,690.58c0,0-18.87-1.88-18.87,26.42,0,0-26.41-13.21-15.09-62.27h69.21" transform="translate(-218.79 -51)"/><path class="cls-12" d="M498.75,130.14s-96.56,60.15-95,321.33V586l15.83,25.33,79.15,1.58Z" transform="translate(-218.79 -51)"/><path class="cls-13" d="M498.73,130.14s96.55,60.15,95,321.33V586l-15.83,25.33-79.14,1.58Z" transform="translate(-218.79 -51)"/><path class="cls-14" d="M499.54,351.75a44.32,44.32,0,0,1,0-88.64" transform="translate(-218.79 -51)"/><path class="cls-15" d="M499.54,263.11a44.32,44.32,0,0,1,0,88.64" transform="translate(-218.79 -51)"/><circle class="cls-16" cx="267.47" cy="237.31" r="6.75"/></svg>